{
	"asset":{
		"generator":"Khronos glTF Blender I/O v4.4.56",
		"version":"2.0"
	},
	"extensionsUsed":[
		"KHR_materials_transmission"
	],
	"scene":0,
	"scenes":[
		{
			"name":"Scene",
			"nodes":[
				0,
				1,
				2,
				3,
				4,
				5,
				6,
				7,
				8,
				9,
				10,
				11
			]
		}
	],
	"nodes":[
		{
			"mesh":0,
			"name":"Plane",
			"scale":[
				8.609999656677246,
				27.12195587158203,
				13.829999923706055
			],
			"translation":[
				-0.059317439794540405,
				4.948494911193848,
				10.309137344360352
			]
		},
		{
			"mesh":1,
			"name":"Cube",
			"scale":[
				8.609999656677246,
				2.56369686126709,
				4.454226493835449
			],
			"translation":[
				0,
				2.533869981765747,
				-9.32610034942627
			]
		},
		{
			"mesh":2,
			"name":"Cube.001",
			"scale":[
				8.609999656677246,
				2.56369686126709,
				4.874229907989502
			],
			"translation":[
				-0.059317439794540405,
				4.948494911193848,
				10.309138298034668
			]
		},
		{
			"mesh":3,
			"name":"Plane.001",
			"scale":[
				8.609999656677246,
				1,
				4.874229907989502
			],
			"translation":[
				-0.05931743606925011,
				4.9416608810424805,
				10.234620094299316
			]
		},
		{
			"mesh":4,
			"name":"Cube.002",
			"rotation":[
				1,
				0,
				0,
				0
			],
			"scale":[
				8.609999656677246,
				0.7584739327430725,
				4.88698673248291
			],
			"translation":[
				-0.059219565242528915,
				0.6195577383041382,
				-0.3733949065208435
			]
		},
		{
			"mesh":5,
			"name":"Plane.002",
			"scale":[
				8.549999237060547,
				1,
				4.419999599456787
			],
			"translation":[
				0,
				5.121945858001709,
				-9.325584411621094
			]
		},
		{
			"mesh":6,
			"name":"Cylinder",
			"scale":[
				0.14949068427085876,
				0.14949068427085876,
				0.14949068427085876
			],
			"translation":[
				4.6351213455200195,
				5.021154403686523,
				9.601691246032715
			]
		},
		{
			"mesh":7,
			"name":"Cylinder.001",
			"scale":[
				0.30184823274612427,
				0.23285537958145142,
				0.30184823274612427
			],
			"translation":[
				4.641244888305664,
				5.37602424621582,
				9.61693286895752
			]
		},
		{
			"mesh":8,
			"name":"Cylinder.002",
			"rotation":[
				-0.03498832881450653,
				-0.030086781829595566,
				-0.04138610512018204,
				0.9980771541595459
			],
			"scale":[
				0.30184823274612427,
				0.2328553944826126,
				0.3018482029438019
			],
			"translation":[
				4.665900230407715,
				5.616332054138184,
				9.559176445007324
			]
		},
		{
			"mesh":9,
			"name":"Cylinder.003",
			"rotation":[
				-0.03334290161728859,
				-0.03475058078765869,
				-0.007967726327478886,
				0.998807966709137
			],
			"scale":[
				0.25107699632644653,
				0.19368880987167358,
				0.25107699632644653
			],
			"translation":[
				4.661015510559082,
				5.849475860595703,
				9.621384620666504
			]
		},
		{
			"mesh":10,
			"name":"Cylinder.004",
			"rotation":[
				-0.008240065537393093,
				-0.04321866109967232,
				-0.03981565311551094,
				0.9982380270957947
			],
			"scale":[
				0.2013586312532425,
				0.1553345024585724,
				0.20135866105556488
			],
			"translation":[
				4.671261787414551,
				6.043308258056641,
				9.61557388305664
			]
		},
		{
			"mesh":11,
			"name":"Cylinder.005",
			"rotation":[
				-0.008240066468715668,
				-0.04321866109967232,
				-0.03981565311551094,
				0.9982380270957947
			],
			"scale":[
				0.18882760405540466,
				0.21250800788402557,
				0.21764472126960754
			],
			"translation":[
				4.702304840087891,
				6.267093658447266,
				9.619593620300293
			]
		}
	],
	"materials":[
		{
			"doubleSided":true,
			"name":"Material.003",
			"pbrMetallicRoughness":{
				"baseColorFactor":[
					0.06847774237394333,
					0.06662602722644806,
					0.06301004439592361,
					1
				],
				"metallicFactor":0,
				"roughnessFactor":0.5
			}
		},
		{
			"doubleSided":true,
			"name":"Material.001",
			"pbrMetallicRoughness":{
				"baseColorFactor":[
					0.04471755772829056,
					0.8004080057144165,
					0.0003662504313979298,
					1
				],
				"metallicFactor":0,
				"roughnessFactor":0.5
			}
		},
		{
			"doubleSided":true,
			"extensions":{
				"KHR_materials_transmission":{
					"transmissionFactor":1
				}
			},
			"name":"water",
			"pbrMetallicRoughness":{
				"baseColorFactor":[
					0.2864835560321808,
					0.7191359996795654,
					1,
					1
				],
				"metallicFactor":0,
				"roughnessFactor":0.5
			}
		},
		{
			"doubleSided":true,
			"name":"Material.006",
			"pbrMetallicRoughness":{
				"baseColorFactor":[
					0.04471755772829056,
					0.8004080057144165,
					0.0003662504313979298,
					1
				],
				"metallicFactor":0,
				"roughnessFactor":0.5
			}
		},
		{
			"doubleSided":true,
			"emissiveFactor":[
				0.06021992862224579,
				0.01508900336921215,
				0
			],
			"name":"Material.004",
			"pbrMetallicRoughness":{
				"baseColorFactor":[
					0,
					0,
					0,
					1
				]
			}
		},
		{
			"doubleSided":true,
			"name":"Material.007",
			"pbrMetallicRoughness":{
				"baseColorFactor":[
					0.2520856559276581,
					1,
					0.050050124526023865,
					1
				],
				"metallicFactor":0,
				"roughnessFactor":0.5
			}
		}
	],
	"meshes":[
		{
			"name":"Plane",
			"primitives":[
				{
					"attributes":{
						"POSITION":0,
						"NORMAL":1,
						"TEXCOORD_0":2
					},
					"indices":3
				}
			]
		},
		{
			"name":"Cube.002",
			"primitives":[
				{
					"attributes":{
						"POSITION":4,
						"NORMAL":5,
						"TEXCOORD_0":6
					},
					"indices":7,
					"material":0
				}
			]
		},
		{
			"name":"Cube.003",
			"primitives":[
				{
					"attributes":{
						"POSITION":8,
						"NORMAL":9,
						"TEXCOORD_0":10
					},
					"indices":7,
					"material":0
				}
			]
		},
		{
			"name":"Plane.001",
			"primitives":[
				{
					"attributes":{
						"POSITION":11,
						"NORMAL":12,
						"TEXCOORD_0":13,
						"COLOR_0":14,
						"COLOR_1":15
					},
					"indices":16,
					"material":1
				}
			]
		},
		{
			"name":"Cube.006",
			"primitives":[
				{
					"attributes":{
						"POSITION":17,
						"NORMAL":18,
						"TEXCOORD_0":19
					},
					"indices":20,
					"material":2
				}
			]
		},
		{
			"name":"Plane.003",
			"primitives":[
				{
					"attributes":{
						"POSITION":21,
						"NORMAL":22,
						"TEXCOORD_0":23
					},
					"indices":16,
					"material":3
				}
			]
		},
		{
			"name":"Cylinder.001",
			"primitives":[
				{
					"attributes":{
						"POSITION":24,
						"NORMAL":25,
						"TEXCOORD_0":26
					},
					"indices":27,
					"material":4
				}
			]
		},
		{
			"name":"Cylinder.002",
			"primitives":[
				{
					"attributes":{
						"POSITION":28,
						"NORMAL":29,
						"TEXCOORD_0":30
					},
					"indices":27,
					"material":5
				}
			]
		},
		{
			"name":"Cylinder.003",
			"primitives":[
				{
					"attributes":{
						"POSITION":31,
						"NORMAL":32,
						"TEXCOORD_0":33
					},
					"indices":34,
					"material":5
				}
			]
		},
		{
			"name":"Cylinder.004",
			"primitives":[
				{
					"attributes":{
						"POSITION":35,
						"NORMAL":36,
						"TEXCOORD_0":37
					},
					"indices":27,
					"material":5
				}
			]
		},
		{
			"name":"Cylinder.005",
			"primitives":[
				{
					"attributes":{
						"POSITION":38,
						"NORMAL":39,
						"TEXCOORD_0":40
					},
					"indices":27,
					"material":5
				}
			]
		},
		{
			"name":"Cylinder.006",
			"primitives":[
				{
					"attributes":{
						"POSITION":41,
						"NORMAL":42,
						"TEXCOORD_0":43
					},
					"indices":27,
					"material":5
				}
			]
		}
	],
	"accessors":[
		{
			"bufferView":0,
			"componentType":5126,
			"count":4,
			"max":[
				1.0068893432617188,
				-0.1815626472234726,
				0.2545815110206604
			],
			"min":[
				-0.9931106567382812,
				-0.1815626472234726,
				-1.7454185485839844
			],
			"type":"VEC3"
		},
		{
			"bufferView":1,
			"componentType":5126,
			"count":4,
			"type":"VEC3"
		},
		{
			"bufferView":2,
			"componentType":5126,
			"count":4,
			"type":"VEC2"
		},
		{
			"bufferView":3,
			"componentType":5123,
			"count":6,
			"type":"SCALAR"
		},
		{
			"bufferView":4,
			"componentType":5126,
			"count":24,
			"max":[
				1,
				1,
				1
			],
			"min":[
				-1,
				-1,
				-1
			],
			"type":"VEC3"
		},
		{
			"bufferView":5,
			"componentType":5126,
			"count":24,
			"type":"VEC3"
		},
		{
			"bufferView":6,
			"componentType":5126,
			"count":24,
			"type":"VEC2"
		},
		{
			"bufferView":7,
			"componentType":5123,
			"count":36,
			"type":"SCALAR"
		},
		{
			"bufferView":8,
			"componentType":5126,
			"count":24,
			"max":[
				1.0068893432617188,
				0.05814725160598755,
				0.7318360805511475
			],
			"min":[
				-0.9931106567382812,
				-1.9418528079986572,
				-1.2681639194488525
			],
			"type":"VEC3"
		},
		{
			"bufferView":9,
			"componentType":5126,
			"count":24,
			"type":"VEC3"
		},
		{
			"bufferView":10,
			"componentType":5126,
			"count":24,
			"type":"VEC2"
		},
		{
			"bufferView":11,
			"componentType":5126,
			"count":12,
			"max":[
				1.0069377422332764,
				0.17345094680786133,
				0.855659008026123
			],
			"min":[
				-0.9930622577667236,
				-7.66837739944458,
				-1.2460840940475464
			],
			"type":"VEC3"
		},
		{
			"bufferView":12,
			"componentType":5126,
			"count":12,
			"type":"VEC3"
		},
		{
			"bufferView":13,
			"componentType":5126,
			"count":12,
			"type":"VEC2"
		},
		{
			"bufferView":14,
			"componentType":5121,
			"count":12,
			"normalized":true,
			"type":"VEC4"
		},
		{
			"bufferView":15,
			"componentType":5123,
			"count":12,
			"normalized":true,
			"type":"VEC4"
		},
		{
			"bufferView":16,
			"componentType":5123,
			"count":18,
			"type":"SCALAR"
		},
		{
			"bufferView":17,
			"componentType":5126,
			"count":369,
			"max":[
				1,
				1,
				1
			],
			"min":[
				-1,
				-1,
				-1
			],
			"type":"VEC3"
		},
		{
			"bufferView":18,
			"componentType":5126,
			"count":369,
			"type":"VEC3"
		},
		{
			"bufferView":19,
			"componentType":5126,
			"count":369,
			"type":"VEC2"
		},
		{
			"bufferView":20,
			"componentType":5123,
			"count":1746,
			"type":"SCALAR"
		},
		{
			"bufferView":21,
			"componentType":5126,
			"count":12,
			"max":[
				1,
				0,
				1.0050673484802246
			],
			"min":[
				-1,
				-0.31820571422576904,
				-1
			],
			"type":"VEC3"
		},
		{
			"bufferView":22,
			"componentType":5126,
			"count":12,
			"type":"VEC3"
		},
		{
			"bufferView":23,
			"componentType":5126,
			"count":12,
			"type":"VEC2"
		},
		{
			"bufferView":24,
			"componentType":5126,
			"count":36,
			"max":[
				0.8660253882408142,
				1.000000238418579,
				1
			],
			"min":[
				-0.8660253882408142,
				-1,
				-1
			],
			"type":"VEC3"
		},
		{
			"bufferView":25,
			"componentType":5126,
			"count":36,
			"type":"VEC3"
		},
		{
			"bufferView":26,
			"componentType":5126,
			"count":36,
			"type":"VEC2"
		},
		{
			"bufferView":27,
			"componentType":5123,
			"count":60,
			"type":"SCALAR"
		},
		{
			"bufferView":28,
			"componentType":5126,
			"count":36,
			"max":[
				1.4792240858078003,
				1.000000238418579,
				1.7080577611923218
			],
			"min":[
				-1.4792187213897705,
				-1.0000001192092896,
				-1.7080577611923218
			],
			"type":"VEC3"
		},
		{
			"bufferView":29,
			"componentType":5126,
			"count":36,
			"type":"VEC3"
		},
		{
			"bufferView":30,
			"componentType":5126,
			"count":36,
			"type":"VEC2"
		},
		{
			"bufferView":31,
			"componentType":5126,
			"count":36,
			"max":[
				1.4966766834259033,
				1.6157848834991455,
				1.7123748064041138
			],
			"min":[
				-1.558687448501587,
				-1.3132597208023071,
				-1.5683085918426514
			],
			"type":"VEC3"
		},
		{
			"bufferView":32,
			"componentType":5126,
			"count":36,
			"type":"VEC3"
		},
		{
			"bufferView":33,
			"componentType":5126,
			"count":36,
			"type":"VEC2"
		},
		{
			"bufferView":34,
			"componentType":5123,
			"count":60,
			"type":"SCALAR"
		},
		{
			"bufferView":35,
			"componentType":5126,
			"count":36,
			"max":[
				1.4792240858078003,
				1.000000238418579,
				1.7080577611923218
			],
			"min":[
				-1.4792187213897705,
				-1.0000001192092896,
				-1.7080577611923218
			],
			"type":"VEC3"
		},
		{
			"bufferView":36,
			"componentType":5126,
			"count":36,
			"type":"VEC3"
		},
		{
			"bufferView":37,
			"componentType":5126,
			"count":36,
			"type":"VEC2"
		},
		{
			"bufferView":38,
			"componentType":5126,
			"count":36,
			"max":[
				1.4792240858078003,
				1.000000238418579,
				1.7080577611923218
			],
			"min":[
				-1.4792187213897705,
				-1.0000001192092896,
				-1.7080577611923218
			],
			"type":"VEC3"
		},
		{
			"bufferView":39,
			"componentType":5126,
			"count":36,
			"type":"VEC3"
		},
		{
			"bufferView":40,
			"componentType":5126,
			"count":36,
			"type":"VEC2"
		},
		{
			"bufferView":41,
			"componentType":5126,
			"count":36,
			"max":[
				1.4792240858078003,
				1.0000011920928955,
				1.7080577611923218
			],
			"min":[
				-1.4792187213897705,
				-1.0000001192092896,
				-1.7080577611923218
			],
			"type":"VEC3"
		},
		{
			"bufferView":42,
			"componentType":5126,
			"count":36,
			"type":"VEC3"
		},
		{
			"bufferView":43,
			"componentType":5126,
			"count":36,
			"type":"VEC2"
		}
	],
	"bufferViews":[
		{
			"buffer":0,
			"byteLength":48,
			"byteOffset":0,
			"target":34962
		},
		{
			"buffer":0,
			"byteLength":48,
			"byteOffset":48,
			"target":34962
		},
		{
			"buffer":0,
			"byteLength":32,
			"byteOffset":96,
			"target":34962
		},
		{
			"buffer":0,
			"byteLength":12,
			"byteOffset":128,
			"target":34963
		},
		{
			"buffer":0,
			"byteLength":288,
			"byteOffset":140,
			"target":34962
		},
		{
			"buffer":0,
			"byteLength":288,
			"byteOffset":428,
			"target":34962
		},
		{
			"buffer":0,
			"byteLength":192,
			"byteOffset":716,
			"target":34962
		},
		{
			"buffer":0,
			"byteLength":72,
			"byteOffset":908,
			"target":34963
		},
		{
			"buffer":0,
			"byteLength":288,
			"byteOffset":980,
			"target":34962
		},
		{
			"buffer":0,
			"byteLength":288,
			"byteOffset":1268,
			"target":34962
		},
		{
			"buffer":0,
			"byteLength":192,
			"byteOffset":1556,
			"target":34962
		},
		{
			"buffer":0,
			"byteLength":144,
			"byteOffset":1748,
			"target":34962
		},
		{
			"buffer":0,
			"byteLength":144,
			"byteOffset":1892,
			"target":34962
		},
		{
			"buffer":0,
			"byteLength":96,
			"byteOffset":2036,
			"target":34962
		},
		{
			"buffer":0,
			"byteLength":48,
			"byteOffset":2132,
			"target":34962
		},
		{
			"buffer":0,
			"byteLength":96,
			"byteOffset":2180,
			"target":34962
		},
		{
			"buffer":0,
			"byteLength":36,
			"byteOffset":2276,
			"target":34963
		},
		{
			"buffer":0,
			"byteLength":4428,
			"byteOffset":2312,
			"target":34962
		},
		{
			"buffer":0,
			"byteLength":4428,
			"byteOffset":6740,
			"target":34962
		},
		{
			"buffer":0,
			"byteLength":2952,
			"byteOffset":11168,
			"target":34962
		},
		{
			"buffer":0,
			"byteLength":3492,
			"byteOffset":14120,
			"target":34963
		},
		{
			"buffer":0,
			"byteLength":144,
			"byteOffset":17612,
			"target":34962
		},
		{
			"buffer":0,
			"byteLength":144,
			"byteOffset":17756,
			"target":34962
		},
		{
			"buffer":0,
			"byteLength":96,
			"byteOffset":17900,
			"target":34962
		},
		{
			"buffer":0,
			"byteLength":432,
			"byteOffset":17996,
			"target":34962
		},
		{
			"buffer":0,
			"byteLength":432,
			"byteOffset":18428,
			"target":34962
		},
		{
			"buffer":0,
			"byteLength":288,
			"byteOffset":18860,
			"target":34962
		},
		{
			"buffer":0,
			"byteLength":120,
			"byteOffset":19148,
			"target":34963
		},
		{
			"buffer":0,
			"byteLength":432,
			"byteOffset":19268,
			"target":34962
		},
		{
			"buffer":0,
			"byteLength":432,
			"byteOffset":19700,
			"target":34962
		},
		{
			"buffer":0,
			"byteLength":288,
			"byteOffset":20132,
			"target":34962
		},
		{
			"buffer":0,
			"byteLength":432,
			"byteOffset":20420,
			"target":34962
		},
		{
			"buffer":0,
			"byteLength":432,
			"byteOffset":20852,
			"target":34962
		},
		{
			"buffer":0,
			"byteLength":288,
			"byteOffset":21284,
			"target":34962
		},
		{
			"buffer":0,
			"byteLength":120,
			"byteOffset":21572,
			"target":34963
		},
		{
			"buffer":0,
			"byteLength":432,
			"byteOffset":21692,
			"target":34962
		},
		{
			"buffer":0,
			"byteLength":432,
			"byteOffset":22124,
			"target":34962
		},
		{
			"buffer":0,
			"byteLength":288,
			"byteOffset":22556,
			"target":34962
		},
		{
			"buffer":0,
			"byteLength":432,
			"byteOffset":22844,
			"target":34962
		},
		{
			"buffer":0,
			"byteLength":432,
			"byteOffset":23276,
			"target":34962
		},
		{
			"buffer":0,
			"byteLength":288,
			"byteOffset":23708,
			"target":34962
		},
		{
			"buffer":0,
			"byteLength":432,
			"byteOffset":23996,
			"target":34962
		},
		{
			"buffer":0,
			"byteLength":432,
			"byteOffset":24428,
			"target":34962
		},
		{
			"buffer":0,
			"byteLength":288,
			"byteOffset":24860,
			"target":34962
		}
	],
	"buffers":[
		{
			"byteLength":25148,
			"uri":"Untitled1.bin"
		}
	]
}
